<svg width="824" height="421" viewBox="0 0 824 421" fill="none" xmlns="http://www.w3.org/2000/svg">
<path d="M465.66 65.5819C578.301 107.585 674.2 161.854 738.189 215.626C770.185 242.513 794.18 269.258 808.31 294.262C822.441 319.269 826.67 342.469 819.264 362.33C811.858 382.19 793.472 396.957 766.418 406.606C739.367 416.254 703.719 420.759 661.93 420.132C578.358 418.88 470.34 397.111 357.698 355.108C245.056 313.105 149.158 258.835 85.1693 205.064C53.1731 178.176 29.1774 151.431 15.048 126.428C0.916999 101.421 -3.31194 78.2205 4.09375 58.3603C11.4994 38.5001 29.8861 23.7328 56.94 14.0836C83.9908 4.43546 119.639 -0.0688887 161.428 0.55746C245 1.81011 353.018 23.5788 465.66 65.5819Z" fill="#D9D9D9" stroke="#D9D9D9"/>
</svg>
