<svg width="748" height="1884" viewBox="0 0 748 1884" fill="none" xmlns="http://www.w3.org/2000/svg">
<path d="M520.662 14.001C522.087 26.2854 518.941 70.0118 502.971 125.301C489.068 173.436 446.648 207.76 407.223 228.261C343.691 261.297 269.088 249.788 230.739 254.165C189.017 258.927 152.004 290.767 130.602 318.954C97.5683 362.46 125.926 450.366 139.623 480.538C154.284 512.833 208.853 538.532 286.185 558.648C326.463 569.126 398.81 573.608 456.267 579.121C612.995 594.159 669.119 606.14 698.243 624.622C723.653 640.747 730.984 689.803 733.818 775.374C735.029 811.911 710.949 832.459 684.101 854.945C659.261 875.749 545.337 875.353 433.055 856.312C368.026 845.284 342.574 836.004 194.424 827.058C156.216 824.751 90.8989 876.928 76.7793 886.389C41.9492 909.729 17.8252 945.145 14.6644 978.037C11.3548 1012.48 20.7732 1073.99 34.6644 1091.47C61.3146 1125.01 175.799 1200.48 230.739 1214.83C274.535 1226.28 356.907 1226.34 456.936 1229.66C572.321 1233.48 612.843 1265.04 642.594 1293.86C663.789 1314.39 662.617 1370.89 651.601 1414.67C643.406 1447.24 556.629 1486.03 456.267 1527.54C335.375 1577.54 325.146 1639.53 316.036 1648.54C278.725 1685.41 280.364 1773.02 296.697 1807.69C302.16 1817.43 310.018 1830.79 316.036 1840.54C322.055 1850.29 325.995 1856.02 337.673 1869.65" stroke="black" stroke-width="28" stroke-linecap="round"/>
</svg>
